<mxfile host="app.diagrams.net" agent="Mozilla/5.0 (Windows NT 10.0; Win64; x64) AppleWebKit/537.36 (KHTML, like Gecko) Chrome/131.0.0.0 Safari/537.36" version="25.0.3">
  <diagram name="Page-1" id="tcrICgXnzO8f75LGhrGe">
    <mxGraphModel dx="576" dy="307" grid="1" gridSize="10" guides="1" tooltips="1" connect="1" arrows="1" fold="1" page="1" pageScale="1" pageWidth="850" pageHeight="1100" math="0" shadow="0">
      <root>
        <mxCell id="0" />
        <mxCell id="1" parent="0" />
        <mxCell id="1i3eyUC5sWkI24iRWrdO-1" value="" style="whiteSpace=wrap;html=1;imageWidth=16;fillOpacity=100;imageHeight=9;aspect=fixed;movable=0;resizable=0;rotatable=0;deletable=0;editable=0;locked=1;connectable=0;" vertex="1" parent="1">
          <mxGeometry x="240" y="320" width="440" height="247.5" as="geometry" />
        </mxCell>
        <mxCell id="1i3eyUC5sWkI24iRWrdO-15" value="" style="rounded=1;whiteSpace=wrap;html=1;" vertex="1" parent="1">
          <mxGeometry x="260" y="390" width="250" height="160" as="geometry" />
        </mxCell>
        <mxCell id="1i3eyUC5sWkI24iRWrdO-16" value="" style="rounded=0;whiteSpace=wrap;html=1;strokeColor=none;" vertex="1" parent="1">
          <mxGeometry x="380" y="378.75" width="10" height="182.5" as="geometry" />
        </mxCell>
        <mxCell id="1i3eyUC5sWkI24iRWrdO-61" value="" style="rounded=0;whiteSpace=wrap;html=1;strokeColor=none;" vertex="1" parent="1">
          <mxGeometry x="330" y="439.99" width="110" height="121.26" as="geometry" />
        </mxCell>
        <mxCell id="1i3eyUC5sWkI24iRWrdO-17" value="" style="rounded=0;whiteSpace=wrap;html=1;strokeColor=none;rotation=-90;" vertex="1" parent="1">
          <mxGeometry x="383.06" y="340.94" width="10" height="258.13" as="geometry" />
        </mxCell>
        <mxCell id="1i3eyUC5sWkI24iRWrdO-18" value="" style="whiteSpace=wrap;html=1;" vertex="1" parent="1">
          <mxGeometry x="540" y="412.5" width="107.5" height="127.5" as="geometry" />
        </mxCell>
        <mxCell id="1i3eyUC5sWkI24iRWrdO-20" value="" style="rounded=0;whiteSpace=wrap;html=1;strokeColor=none;rotation=-90;" vertex="1" parent="1">
          <mxGeometry x="591.75" y="417" width="10" height="118.51" as="geometry" />
        </mxCell>
        <mxCell id="1i3eyUC5sWkI24iRWrdO-21" value="" style="rounded=1;whiteSpace=wrap;html=1;opacity=40;aspect=fixed;" vertex="1" parent="1">
          <mxGeometry x="357.24" y="452.5" width="55.52" height="35" as="geometry" />
        </mxCell>
        <mxCell id="1i3eyUC5sWkI24iRWrdO-22" value="" style="rounded=0;whiteSpace=wrap;html=1;strokeColor=none;" vertex="1" parent="1">
          <mxGeometry x="384.63" y="390" width="2" height="160" as="geometry" />
        </mxCell>
        <mxCell id="1i3eyUC5sWkI24iRWrdO-62" value="" style="rounded=0;whiteSpace=wrap;html=1;strokeColor=none;" vertex="1" parent="1">
          <mxGeometry x="370" y="460.32" width="30" height="59.68" as="geometry" />
        </mxCell>
        <mxCell id="1i3eyUC5sWkI24iRWrdO-23" value="" style="rounded=0;whiteSpace=wrap;html=1;strokeColor=none;rotation=90;" vertex="1" parent="1">
          <mxGeometry x="380" y="390" width="2" height="160" as="geometry" />
        </mxCell>
        <mxCell id="1i3eyUC5sWkI24iRWrdO-24" value="-username&lt;br&gt;-rank" style="rounded=0;whiteSpace=wrap;fillColor=#D4D4D4;html=1;fontSize=6;" vertex="1" parent="1">
          <mxGeometry x="246" y="325.38" width="86" height="25.5" as="geometry" />
        </mxCell>
        <mxCell id="1i3eyUC5sWkI24iRWrdO-25" value="song details" style="rounded=0;whiteSpace=wrap;fillColor=#D4D4D4;html=1;fontSize=6;" vertex="1" parent="1">
          <mxGeometry x="360" y="325.38" width="200" height="25.5" as="geometry" />
        </mxCell>
        <mxCell id="1i3eyUC5sWkI24iRWrdO-26" value="score" style="rounded=0;whiteSpace=wrap;fillColor=#D4D4D4;html=1;fontSize=6;" vertex="1" parent="1">
          <mxGeometry x="590" y="329.5" width="80" height="60.5" as="geometry" />
        </mxCell>
        <mxCell id="1i3eyUC5sWkI24iRWrdO-27" value="" style="endArrow=none;html=1;rounded=0;opacity=40;exitX=0.045;exitY=0.051;exitDx=0;exitDy=0;exitPerimeter=0;entryX=0.002;entryY=0.468;entryDx=0;entryDy=0;entryPerimeter=0;" edge="1" parent="1" target="1i3eyUC5sWkI24iRWrdO-15">
          <mxGeometry width="50" height="50" relative="1" as="geometry">
            <mxPoint x="357.23840000000007" y="469.74500000000006" as="sourcePoint" />
            <mxPoint x="267.75" y="412.50000000000006" as="targetPoint" />
          </mxGeometry>
        </mxCell>
        <mxCell id="1i3eyUC5sWkI24iRWrdO-28" value="" style="endArrow=none;html=1;rounded=0;opacity=40;entryX=0.002;entryY=0.468;entryDx=0;entryDy=0;entryPerimeter=0;exitX=-0.081;exitY=0.069;exitDx=0;exitDy=0;exitPerimeter=0;" edge="1" parent="1" source="1i3eyUC5sWkI24iRWrdO-16">
          <mxGeometry width="50" height="50" relative="1" as="geometry">
            <mxPoint x="385.11" y="402.5" as="sourcePoint" />
            <mxPoint x="384.63" y="452.5" as="targetPoint" />
          </mxGeometry>
        </mxCell>
        <mxCell id="1i3eyUC5sWkI24iRWrdO-29" value="" style="endArrow=none;html=1;rounded=0;opacity=40;entryX=0.552;entryY=0.025;entryDx=0;entryDy=0;entryPerimeter=0;exitX=0.524;exitY=0.007;exitDx=0;exitDy=0;exitPerimeter=0;" edge="1" parent="1" source="1i3eyUC5sWkI24iRWrdO-15" target="1i3eyUC5sWkI24iRWrdO-21">
          <mxGeometry width="50" height="50" relative="1" as="geometry">
            <mxPoint x="389" y="401" as="sourcePoint" />
            <mxPoint x="394.63" y="462.5" as="targetPoint" />
          </mxGeometry>
        </mxCell>
        <mxCell id="1i3eyUC5sWkI24iRWrdO-30" value="" style="endArrow=none;html=1;rounded=0;opacity=40;entryX=-0.222;entryY=0.302;entryDx=0;entryDy=0;entryPerimeter=0;exitX=0.904;exitY=0.97;exitDx=0;exitDy=0;exitPerimeter=0;" edge="1" parent="1" source="1i3eyUC5sWkI24iRWrdO-17" target="1i3eyUC5sWkI24iRWrdO-23">
          <mxGeometry width="50" height="50" relative="1" as="geometry">
            <mxPoint x="401" y="401" as="sourcePoint" />
            <mxPoint x="398" y="463" as="targetPoint" />
          </mxGeometry>
        </mxCell>
        <mxCell id="1i3eyUC5sWkI24iRWrdO-31" value="" style="endArrow=none;html=1;rounded=0;opacity=40;entryX=-0.222;entryY=0.302;entryDx=0;entryDy=0;entryPerimeter=0;exitX=-0.114;exitY=0.971;exitDx=0;exitDy=0;exitPerimeter=0;" edge="1" parent="1" source="1i3eyUC5sWkI24iRWrdO-17">
          <mxGeometry width="50" height="50" relative="1" as="geometry">
            <mxPoint x="508.76" y="468.51" as="sourcePoint" />
            <mxPoint x="412.76" y="471.51" as="targetPoint" />
          </mxGeometry>
        </mxCell>
        <mxCell id="1i3eyUC5sWkI24iRWrdO-32" value="" style="endArrow=none;html=1;rounded=0;opacity=40;exitX=-0.002;exitY=0.559;exitDx=0;exitDy=0;exitPerimeter=0;entryX=0.001;entryY=0.527;entryDx=0;entryDy=0;entryPerimeter=0;" edge="1" parent="1" source="1i3eyUC5sWkI24iRWrdO-21" target="1i3eyUC5sWkI24iRWrdO-15">
          <mxGeometry width="50" height="50" relative="1" as="geometry">
            <mxPoint x="357.24" y="478.49" as="sourcePoint" />
            <mxPoint x="260" y="474" as="targetPoint" />
          </mxGeometry>
        </mxCell>
        <mxCell id="1i3eyUC5sWkI24iRWrdO-33" value="" style="endArrow=none;html=1;rounded=0;opacity=40;entryX=1.004;entryY=0.473;entryDx=0;entryDy=0;entryPerimeter=0;exitX=1.011;exitY=0.92;exitDx=0;exitDy=0;exitPerimeter=0;" edge="1" parent="1" source="1i3eyUC5sWkI24iRWrdO-61" target="1i3eyUC5sWkI24iRWrdO-62">
          <mxGeometry width="50" height="50" relative="1" as="geometry">
            <mxPoint x="483.87" y="491.99" as="sourcePoint" />
            <mxPoint x="386.63" y="487.5" as="targetPoint" />
          </mxGeometry>
        </mxCell>
        <mxCell id="1i3eyUC5sWkI24iRWrdO-34" value="" style="endArrow=none;html=1;rounded=0;opacity=40;entryX=-0.027;entryY=0.464;entryDx=0;entryDy=0;entryPerimeter=0;exitX=-0.009;exitY=0.914;exitDx=0;exitDy=0;exitPerimeter=0;" edge="1" parent="1" source="1i3eyUC5sWkI24iRWrdO-61" target="1i3eyUC5sWkI24iRWrdO-62">
          <mxGeometry width="50" height="50" relative="1" as="geometry">
            <mxPoint x="387.82" y="549.5" as="sourcePoint" />
            <mxPoint x="383.45" y="487" as="targetPoint" />
          </mxGeometry>
        </mxCell>
        <mxCell id="1i3eyUC5sWkI24iRWrdO-35" value="" style="endArrow=none;html=1;rounded=0;opacity=30;exitX=0.032;exitY=0.951;exitDx=0;exitDy=0;exitPerimeter=0;entryX=0.029;entryY=0.959;entryDx=0;entryDy=0;entryPerimeter=0;jumpSize=8;dashed=1;dashPattern=8 8;" edge="1" parent="1" source="1i3eyUC5sWkI24iRWrdO-21" target="1i3eyUC5sWkI24iRWrdO-15">
          <mxGeometry width="50" height="50" relative="1" as="geometry">
            <mxPoint x="367" y="510" as="sourcePoint" />
            <mxPoint x="270" y="512" as="targetPoint" />
          </mxGeometry>
        </mxCell>
        <mxCell id="1i3eyUC5sWkI24iRWrdO-36" value="" style="endArrow=none;html=1;rounded=0;opacity=30;exitX=0.975;exitY=0.056;exitDx=0;exitDy=0;exitPerimeter=0;jumpSize=8;dashed=1;dashPattern=8 8;entryX=0.959;entryY=0.051;entryDx=0;entryDy=0;entryPerimeter=0;" edge="1" parent="1" source="1i3eyUC5sWkI24iRWrdO-15" target="1i3eyUC5sWkI24iRWrdO-21">
          <mxGeometry width="50" height="50" relative="1" as="geometry">
            <mxPoint x="502" y="395.5" as="sourcePoint" />
            <mxPoint x="410" y="450" as="targetPoint" />
          </mxGeometry>
        </mxCell>
        <mxCell id="1i3eyUC5sWkI24iRWrdO-37" value="" style="endArrow=none;html=1;rounded=0;opacity=30;exitX=0.042;exitY=0.03;exitDx=0;exitDy=0;exitPerimeter=0;jumpSize=8;dashed=1;dashPattern=8 8;entryX=0.041;entryY=0.028;entryDx=0;entryDy=0;entryPerimeter=0;" edge="1" parent="1" source="1i3eyUC5sWkI24iRWrdO-21" target="1i3eyUC5sWkI24iRWrdO-15">
          <mxGeometry width="50" height="50" relative="1" as="geometry">
            <mxPoint x="380" y="365.93" as="sourcePoint" />
            <mxPoint x="286" y="420.93" as="targetPoint" />
          </mxGeometry>
        </mxCell>
        <mxCell id="1i3eyUC5sWkI24iRWrdO-38" value="" style="endArrow=none;html=1;rounded=0;opacity=30;exitX=0.98;exitY=0.95;exitDx=0;exitDy=0;exitPerimeter=0;jumpSize=8;dashed=1;dashPattern=8 8;entryX=0.966;entryY=0.951;entryDx=0;entryDy=0;entryPerimeter=0;" edge="1" parent="1" source="1i3eyUC5sWkI24iRWrdO-15" target="1i3eyUC5sWkI24iRWrdO-21">
          <mxGeometry width="50" height="50" relative="1" as="geometry">
            <mxPoint x="500" y="547.5" as="sourcePoint" />
            <mxPoint x="410" y="490" as="targetPoint" />
          </mxGeometry>
        </mxCell>
        <mxCell id="1i3eyUC5sWkI24iRWrdO-40" value="" style="whiteSpace=wrap;html=1;aspect=fixed;opacity=40;" vertex="1" parent="1">
          <mxGeometry x="580.3199999999999" y="460.32" width="26.87" height="31.87" as="geometry" />
        </mxCell>
        <mxCell id="1i3eyUC5sWkI24iRWrdO-41" value="" style="rounded=0;whiteSpace=wrap;html=1;strokeColor=none;rotation=-90;" vertex="1" parent="1">
          <mxGeometry x="592.75" y="417" width="2" height="118.51" as="geometry" />
        </mxCell>
        <mxCell id="1i3eyUC5sWkI24iRWrdO-42" value="" style="endArrow=none;html=1;rounded=0;opacity=30;exitX=1;exitY=0;exitDx=0;exitDy=0;jumpSize=8;dashed=1;dashPattern=8 8;entryX=1;entryY=0;entryDx=0;entryDy=0;" edge="1" parent="1" source="1i3eyUC5sWkI24iRWrdO-18" target="1i3eyUC5sWkI24iRWrdO-40">
          <mxGeometry width="50" height="50" relative="1" as="geometry">
            <mxPoint x="695.75" y="405.32" as="sourcePoint" />
            <mxPoint x="601.75" y="460.32" as="targetPoint" />
          </mxGeometry>
        </mxCell>
        <mxCell id="1i3eyUC5sWkI24iRWrdO-43" value="" style="endArrow=none;html=1;rounded=0;opacity=30;exitX=0;exitY=0;exitDx=0;exitDy=0;jumpSize=8;dashed=1;dashPattern=8 8;entryX=0;entryY=0;entryDx=0;entryDy=0;" edge="1" parent="1" source="1i3eyUC5sWkI24iRWrdO-18" target="1i3eyUC5sWkI24iRWrdO-40">
          <mxGeometry width="50" height="50" relative="1" as="geometry">
            <mxPoint x="617.25" y="417" as="sourcePoint" />
            <mxPoint x="576.25" y="464" as="targetPoint" />
          </mxGeometry>
        </mxCell>
        <mxCell id="1i3eyUC5sWkI24iRWrdO-44" value="" style="endArrow=none;html=1;rounded=0;opacity=30;exitX=0;exitY=0;exitDx=0;exitDy=0;jumpSize=8;dashed=1;dashPattern=8 8;entryX=0;entryY=0;entryDx=0;entryDy=0;" edge="1" parent="1">
          <mxGeometry width="50" height="50" relative="1" as="geometry">
            <mxPoint x="610.5" y="496" as="sourcePoint" />
            <mxPoint x="650.5" y="543" as="targetPoint" />
          </mxGeometry>
        </mxCell>
        <mxCell id="1i3eyUC5sWkI24iRWrdO-45" value="" style="endArrow=none;html=1;rounded=0;opacity=30;exitX=1;exitY=0;exitDx=0;exitDy=0;jumpSize=8;dashed=1;dashPattern=8 8;entryX=1;entryY=0;entryDx=0;entryDy=0;" edge="1" parent="1">
          <mxGeometry width="50" height="50" relative="1" as="geometry">
            <mxPoint x="579.3199999999999" y="495" as="sourcePoint" />
            <mxPoint x="538.3199999999999" y="542" as="targetPoint" />
          </mxGeometry>
        </mxCell>
        <mxCell id="1i3eyUC5sWkI24iRWrdO-46" value="" style="endArrow=none;html=1;rounded=0;opacity=40;exitX=1.294;exitY=0.386;exitDx=0;exitDy=0;exitPerimeter=0;entryX=0.001;entryY=0.457;entryDx=0;entryDy=0;entryPerimeter=0;" edge="1" parent="1" source="1i3eyUC5sWkI24iRWrdO-41" target="1i3eyUC5sWkI24iRWrdO-18">
          <mxGeometry width="50" height="50" relative="1" as="geometry">
            <mxPoint x="636.2384000000001" y="478.62500000000006" as="sourcePoint" />
            <mxPoint x="540" y="473.88" as="targetPoint" />
          </mxGeometry>
        </mxCell>
        <mxCell id="1i3eyUC5sWkI24iRWrdO-47" value="" style="endArrow=none;html=1;rounded=0;opacity=40;exitX=0.142;exitY=-0.081;exitDx=0;exitDy=0;entryX=-0.119;entryY=0.024;entryDx=0;entryDy=0;entryPerimeter=0;exitPerimeter=0;" edge="1" parent="1" source="1i3eyUC5sWkI24iRWrdO-50" target="1i3eyUC5sWkI24iRWrdO-20">
          <mxGeometry width="50" height="50" relative="1" as="geometry">
            <mxPoint x="590" y="485" as="sourcePoint" />
            <mxPoint x="550" y="481" as="targetPoint" />
          </mxGeometry>
        </mxCell>
        <mxCell id="1i3eyUC5sWkI24iRWrdO-48" value="" style="endArrow=none;html=1;rounded=0;opacity=40;exitX=1.066;exitY=0.927;exitDx=0;exitDy=0;exitPerimeter=0;entryX=1.109;entryY=0.621;entryDx=0;entryDy=0;entryPerimeter=0;" edge="1" parent="1" source="1i3eyUC5sWkI24iRWrdO-20" target="1i3eyUC5sWkI24iRWrdO-41">
          <mxGeometry width="50" height="50" relative="1" as="geometry">
            <mxPoint x="647.5" y="478.26" as="sourcePoint" />
            <mxPoint x="607.5" y="474.26" as="targetPoint" />
          </mxGeometry>
        </mxCell>
        <mxCell id="1i3eyUC5sWkI24iRWrdO-49" value="" style="endArrow=none;html=1;rounded=0;opacity=40;exitX=-0.082;exitY=0.924;exitDx=0;exitDy=0;exitPerimeter=0;entryX=1.109;entryY=0.621;entryDx=0;entryDy=0;entryPerimeter=0;" edge="1" parent="1" source="1i3eyUC5sWkI24iRWrdO-20">
          <mxGeometry width="50" height="50" relative="1" as="geometry">
            <mxPoint x="646.19" y="474.26" as="sourcePoint" />
            <mxPoint x="607.19" y="478.26" as="targetPoint" />
          </mxGeometry>
        </mxCell>
        <mxCell id="1i3eyUC5sWkI24iRWrdO-50" value="" style="shape=partialRectangle;whiteSpace=wrap;html=1;bottom=1;right=1;left=1;top=0;fillColor=none;routingCenterX=-0.5;aspect=fixed;strokeColor=#FF6666;strokeWidth=3;" vertex="1" parent="1">
          <mxGeometry x="575.75" y="480" width="36" height="20" as="geometry" />
        </mxCell>
        <mxCell id="1i3eyUC5sWkI24iRWrdO-51" value="" style="shape=partialRectangle;whiteSpace=wrap;html=1;bottom=1;right=1;left=1;top=0;fillColor=none;routingCenterX=-0.5;aspect=fixed;strokeColor=#3399FF;flipV=1;strokeWidth=3;" vertex="1" parent="1">
          <mxGeometry x="561.97" y="437.81" width="63.57" height="35.32" as="geometry" />
        </mxCell>
        <mxCell id="1i3eyUC5sWkI24iRWrdO-55" value="" style="curved=0;endArrow=none;html=1;rounded=1;strokeColor=#FF8000;endFill=0;exitX=-1.334;exitY=0.242;exitDx=0;exitDy=0;exitPerimeter=0;strokeWidth=3;" edge="1" parent="1" source="1i3eyUC5sWkI24iRWrdO-22">
          <mxGeometry width="50" height="50" relative="1" as="geometry">
            <mxPoint x="403.06" y="412.5" as="sourcePoint" />
            <mxPoint x="320" y="468" as="targetPoint" />
            <Array as="points">
              <mxPoint x="320" y="429" />
            </Array>
          </mxGeometry>
        </mxCell>
        <mxCell id="1i3eyUC5sWkI24iRWrdO-56" value="" style="curved=0;endArrow=none;html=1;rounded=1;strokeColor=#FF8000;endFill=0;exitX=-1.334;exitY=0.242;exitDx=0;exitDy=0;exitPerimeter=0;strokeWidth=3;" edge="1" parent="1">
          <mxGeometry width="50" height="50" relative="1" as="geometry">
            <mxPoint x="389.9999999999998" y="428.25" as="sourcePoint" />
            <mxPoint x="451.9999999999998" y="467.25" as="targetPoint" />
            <Array as="points">
              <mxPoint x="451.9999999999998" y="428.25" />
            </Array>
          </mxGeometry>
        </mxCell>
        <mxCell id="1i3eyUC5sWkI24iRWrdO-57" value="" style="curved=0;endArrow=none;html=1;rounded=1;strokeColor=#FF8000;endFill=0;exitX=-0.119;exitY=0.108;exitDx=0;exitDy=0;exitPerimeter=0;strokeWidth=3;" edge="1" parent="1" source="1i3eyUC5sWkI24iRWrdO-16">
          <mxGeometry width="50" height="50" relative="1" as="geometry">
            <mxPoint x="342" y="398.81" as="sourcePoint" />
            <mxPoint x="279" y="466" as="targetPoint" />
            <Array as="points">
              <mxPoint x="280" y="398.81" />
            </Array>
          </mxGeometry>
        </mxCell>
        <mxCell id="1i3eyUC5sWkI24iRWrdO-58" value="" style="curved=0;endArrow=none;html=1;rounded=1;strokeColor=#FF8000;endFill=0;strokeWidth=3;" edge="1" parent="1">
          <mxGeometry width="50" height="50" relative="1" as="geometry">
            <mxPoint x="430" y="533" as="sourcePoint" />
            <mxPoint x="489" y="476" as="targetPoint" />
            <Array as="points">
              <mxPoint x="489" y="532.4400000000002" />
            </Array>
          </mxGeometry>
        </mxCell>
        <mxCell id="1i3eyUC5sWkI24iRWrdO-65" value="" style="endArrow=none;html=1;rounded=0;entryX=0.909;entryY=0.907;entryDx=0;entryDy=0;entryPerimeter=0;" edge="1" parent="1" target="1i3eyUC5sWkI24iRWrdO-61">
          <mxGeometry width="50" height="50" relative="1" as="geometry">
            <mxPoint x="340" y="550" as="sourcePoint" />
            <mxPoint x="390" y="500" as="targetPoint" />
          </mxGeometry>
        </mxCell>
        <mxCell id="1i3eyUC5sWkI24iRWrdO-68" value="" style="endArrow=none;html=1;rounded=0;opacity=40;" edge="1" parent="1">
          <mxGeometry width="50" height="50" relative="1" as="geometry">
            <mxPoint x="375" y="488" as="sourcePoint" />
            <mxPoint x="395" y="488" as="targetPoint" />
          </mxGeometry>
        </mxCell>
        <mxCell id="1i3eyUC5sWkI24iRWrdO-69" value="" style="endArrow=none;html=1;rounded=0;opacity=40;" edge="1" parent="1">
          <mxGeometry width="50" height="50" relative="1" as="geometry">
            <mxPoint x="341" y="549" as="sourcePoint" />
            <mxPoint x="376" y="487" as="targetPoint" />
          </mxGeometry>
        </mxCell>
        <mxCell id="1i3eyUC5sWkI24iRWrdO-72" value="" style="endArrow=none;html=1;rounded=0;opacity=40;" edge="1" parent="1">
          <mxGeometry width="50" height="50" relative="1" as="geometry">
            <mxPoint x="429" y="549" as="sourcePoint" />
            <mxPoint x="394" y="488" as="targetPoint" />
          </mxGeometry>
        </mxCell>
        <mxCell id="1i3eyUC5sWkI24iRWrdO-75" value="" style="endArrow=none;html=1;rounded=0;strokeColor=#857D3A;strokeWidth=3;" edge="1" parent="1">
          <mxGeometry width="50" height="50" relative="1" as="geometry">
            <mxPoint x="356.63" y="520" as="sourcePoint" />
            <mxPoint x="414.63" y="520" as="targetPoint" />
          </mxGeometry>
        </mxCell>
      </root>
    </mxGraphModel>
  </diagram>
</mxfile>
